<svg width="512" height="512" viewBox="0 0 512 512" xmlns="http://www.w3.org/2000/svg">
  <path d="M504.994 442.657L405.304 342.967C400.805 338.467 394.705 335.967 388.306 335.967H372.007C399.605 300.671 416.003 256.275 416.003 207.98C416.003 93.0909 322.912 0 208.023 0C93.1346 0 0.0437012 93.0909 0.0437012 207.98C0.0437012 322.868 93.1346 415.959 208.023 415.959C256.319 415.959 300.714 399.561 336.011 371.964V388.262C336.011 394.661 338.511 400.761 343.01 405.26L442.701 504.951C452.1 514.35 467.298 514.35 476.597 504.951L504.894 476.653C514.293 467.254 514.294 452.056 504.994 442.657ZM208.023 335.967C137.33 335.967 80.0359 278.773 80.0359 207.98C80.0359 137.287 137.23 79.9922 208.023 79.9922C278.716 79.9922 336.011 137.187 336.011 207.98C336.011 278.673 278.816 335.967 208.023 335.967Z" />
</svg>