<svg width="512" height="512" viewBox="0 0 512 512" xmlns="http://www.w3.org/2000/svg">
<path d="M485.778 175.115L345.959 154.73L283.466 28.0225C272.269 5.43707 239.827 5.14997 228.534 28.0225L166.041 154.73L26.2225 175.115C1.14886 178.751 -8.89972 209.663 9.28343 227.367L110.439 325.939L86.514 465.184C82.2074 490.353 108.717 509.206 130.919 497.435L256 431.688L381.081 497.435C403.284 509.11 429.793 490.353 425.486 465.184L401.561 325.939L502.717 227.367C520.9 209.663 510.851 178.751 485.778 175.115ZM352.275 309.861L374.956 442.311L256 379.818L137.044 442.311L159.725 309.861L63.4501 216.074L196.474 196.743L256 76.1599L315.526 196.743L448.55 216.074L352.275 309.861Z"/>
</svg>
